HIERARCHY
ROOT root
{
	OFFSET 0.000000 0.000000 0.000000
	CHANNELS 6 Xposition Yposition Zposition Zrotation Yrotation Xrotation
	JOINT lhip
	{
		OFFSET 0.058581 -0.082280 -0.017664
		CHANNELS 3 Zrotation Yrotation Xrotation
		JOINT lknee
		{
			OFFSET 0.043451 -0.386469 0.008037
			CHANNELS 3 Zrotation Yrotation Xrotation
			JOINT lankle
			{
				OFFSET -0.014790 -0.426874 -0.037428
				CHANNELS 3 Zrotation Yrotation Xrotation
				JOINT ltoe
				{
					OFFSET 0.041054 -0.060286 0.122042
					CHANNELS 3 Zrotation Yrotation Xrotation
					End Site
					{
						OFFSET 0.000000 0.000000 0.000000
					}
				}
			}
		}
	}
	JOINT rhip
	{
		OFFSET -0.060310 -0.090513 -0.013543
		CHANNELS 3 Zrotation Yrotation Xrotation
		JOINT rknee
		{
			OFFSET -0.043257 -0.383688 -0.004843
			CHANNELS 3 Zrotation Yrotation Xrotation
			JOINT rankle
			{
				OFFSET 0.019056 -0.420046 -0.034562
				CHANNELS 3 Zrotation Yrotation Xrotation
				JOINT rtoe
				{
					OFFSET -0.034840 -0.062106 0.130323
					CHANNELS 3 Zrotation Yrotation Xrotation
					End Site
					{
						OFFSET 0.000000 0.000000 0.000000
					}
				}
			}
		}
	}
	JOINT lowerback
	{
		OFFSET 0.004439 0.124404 -0.038385
		CHANNELS 3 Zrotation Yrotation Xrotation
		JOINT upperback
		{
			OFFSET 0.004488 0.137956 0.026820
			CHANNELS 3 Zrotation Yrotation Xrotation
			JOINT chest
			{
				OFFSET -0.002265 0.056032 0.002855
				CHANNELS 3 Zrotation Yrotation Xrotation
				JOINT lowerneck
				{
					OFFSET -0.013390 0.211636 -0.033468
					CHANNELS 3 Zrotation Yrotation Xrotation
					JOINT upperneck
					{
						OFFSET 0.010113 0.088937 0.050410
						CHANNELS 3 Zrotation Yrotation Xrotation
						End Site
						{
							OFFSET 0.000000 0.000000 0.000000
						}
					}
				}
				JOINT lclavicle
				{
					OFFSET 0.071702 0.114000 -0.018898
					CHANNELS 3 Zrotation Yrotation Xrotation
					JOINT lshoulder
					{
						OFFSET 0.122921 0.045205 -0.019046
						CHANNELS 3 Zrotation Yrotation Xrotation
						JOINT lelbow
						{
							OFFSET 0.255332 -0.015649 -0.022946
							CHANNELS 3 Zrotation Yrotation Xrotation
							JOINT lwrist
							{
								OFFSET 0.265709 0.012698 -0.007375
								CHANNELS 3 Zrotation Yrotation Xrotation
								End Site
								{
									OFFSET 0.000000 0.000000 0.000000
								}
							}
						}
					}
				}
				JOINT rclavicle
				{
					OFFSET -0.082954 0.112472 -0.023707
					CHANNELS 3 Zrotation Yrotation Xrotation
					JOINT rshoulder
					{
						OFFSET -0.113228 0.046853 -0.008472
						CHANNELS 3 Zrotation Yrotation Xrotation
						JOINT relbow
						{
							OFFSET -0.260127 -0.014369 -0.031269
							CHANNELS 3 Zrotation Yrotation Xrotation
							JOINT rwrist
							{
								OFFSET -0.269108 0.006794 -0.006027
								CHANNELS 3 Zrotation Yrotation Xrotation
								End Site
								{
									OFFSET 0.000000 0.000000 0.000000
								}
							}
						}
					}
				}
			}
		}
	}
}
MOTION
Frames: 5
Frame Time: 0.033333
-0.446368 0.649309 0.968205 75.168357 -5.254750 86.630701 2.160341 -3.514946 -13.296087 -2.290822 -3.142303 8.337836 -1.467783 6.291358 -0.164135 0.000000 -0.000000 0.000000 -5.048980 -9.022528 15.017931 -2.473740 -5.239375 -1.689582 0.082233 -15.998619 -17.451823 0.000000 -0.000000 0.000000 -0.582527 6.939337 9.328420 -3.597415 -1.334018 -1.273816 -1.716047 -0.808197 3.804241 -1.708431 7.586521 -5.537608 -1.182888 5.620987 8.415046 -25.895094 8.911508 1.229205 -55.716176 -6.306983 4.300499 11.708274 -25.351859 -1.504814 0.963443 -4.084201 -15.611607 26.514687 -1.228185 2.628339 57.350921 2.189015 15.537299 -9.524327 20.193495 -0.677313 3.462736 2.973361 -5.217401 
-0.439301 0.653271 0.968334 75.558484 -5.683687 87.100065 1.500536 -4.859348 -13.747510 -2.285213 -2.756876 8.943270 -1.220387 6.675760 -0.687466 0.000000 -0.000000 0.000000 -5.764734 -8.992947 14.361751 -2.928608 -6.672238 -0.368477 1.426058 -15.005957 -17.949613 0.000000 -0.000000 0.000000 -1.206249 7.463019 8.901925 -3.601195 -1.878495 -0.946968 -1.963284 -0.311762 2.885749 -1.975976 6.840148 -5.752163 0.029322 4.741571 8.589114 -25.384779 7.657230 1.285035 -55.538429 -6.638467 6.588133 11.878018 -27.801977 -2.540041 8.755037 -7.062520 -16.966490 26.190547 -1.007741 2.254265 58.491037 1.642197 14.872180 -9.518184 19.124393 1.150469 1.579377 5.383134 -3.271592 
-0.430348 0.657543 0.969184 75.483507 -5.549952 87.113377 1.330968 -5.162796 -13.640527 -2.559198 -2.706255 9.639466 -0.510857 6.849269 -1.623485 0.000000 -0.000000 0.000000 -6.200318 -9.084025 14.142861 -3.087184 -6.742062 0.860740 1.914821 -14.816185 -17.917074 0.000000 -0.000000 0.000000 -1.288805 7.418513 8.135203 -3.574618 -1.815518 -0.546614 -2.016805 -0.146691 2.840129 -1.864854 6.243224 -5.594782 0.037671 4.406225 8.184663 -25.495265 7.375990 1.344799 -55.725196 -6.878243 7.656783 12.661894 -29.966199 -1.352817 8.870399 -6.041207 -17.656360 26.348186 -0.145346 2.808045 58.430912 2.267244 15.205918 -9.454584 18.313336 1.120438 1.715985 5.125608 -3.813195 
-0.418602 0.664352 0.971207 75.379752 -5.202660 87.179909 1.165791 -5.423714 -13.424299 -2.829296 -2.751745 10.264782 -0.155701 7.134202 -2.288068 0.000000 -0.000000 0.000000 -6.782677 -9.225535 13.605133 -3.220925 -6.797166 3.012923 3.037987 -14.097476 -17.174928 0.000000 -0.000000 0.000000 -0.835864 7.298633 7.929838 -3.540769 -1.692356 -0.937163 -2.384711 -0.206064 2.838538 -1.752285 5.752303 -6.172309 0.115241 4.009453 8.371456 -25.072974 7.545401 1.226769 -56.263750 -7.023783 8.785244 12.826897 -33.085511 -0.516901 9.152772 -4.725841 -18.547339 26.599074 0.021862 2.559357 58.236066 3.093782 15.506023 -9.331005 17.776561 1.131672 1.925106 4.616118 -3.195756 
-0.410325 0.669556 0.972988 75.409546 -5.034104 86.677714 0.793266 -5.312971 -12.520785 -2.981300 -3.184450 10.453365 0.093928 7.307189 -3.085851 0.000000 -0.000000 0.000000 -7.380008 -8.941099 13.821486 -3.178566 -6.978794 4.521118 3.917060 -13.822773 -16.802324 0.000000 -0.000000 0.000000 -0.721893 6.976585 7.914440 -3.440935 -1.648221 -0.647657 -2.301833 -0.052775 2.792316 -1.591517 5.531419 -6.370728 -0.191811 3.969579 8.608176 -25.242533 7.379728 1.233293 -56.480030 -7.058433 8.977809 13.213338 -34.602968 -0.146816 7.773671 -5.445839 -18.135050 26.634349 0.482250 2.190946 57.921280 3.331800 15.454597 -9.452354 17.669159 0.979610 2.706211 4.511678 -2.489213 
